<svg width="19" height="16" viewBox="0 0 19 16" fill="none" xmlns="http://www.w3.org/2000/svg">
<path d="M3 5.5L5.5 10H0.5L3 5.5ZM1 0H5V4H1V0ZM3 16C3.53043 16 4.03914 15.7893 4.41421 15.4142C4.78929 15.0391 5 14.5304 5 14C5 13.4696 4.78929 12.9609 4.41421 12.5858C4.03914 12.2107 3.53043 12 3 12C2.46957 12 1.96086 12.2107 1.58579 12.5858C1.21071 12.9609 1 13.4696 1 14C1 14.5304 1.21071 15.0391 1.58579 15.4142C1.96086 15.7893 2.46957 16 3 16ZM7 1V3H19V1H7ZM7 15H19V13H7V15ZM7 9H19V7H7V9Z" fill="black"/>
</svg>
