<svg width="30" height="30" viewBox="0 0 30 30" fill="none" xmlns="http://www.w3.org/2000/svg">
<path d="M6.66667 16H1.33333C0.533333 16 0 16.5333 0 17.3333V28C0 28.8 0.533333 29.3333 1.33333 29.3333H6.66667C7.46667 29.3333 8 28.8 8 28V17.3333C8 16.5333 7.46667 16 6.66667 16ZM28 10.6667H22.6667C21.8667 10.6667 21.3333 11.2 21.3333 12V28C21.3333 28.8 21.8667 29.3333 22.6667 29.3333H28C28.8 29.3333 29.3333 28.8 29.3333 28V12C29.3333 11.2 28.8 10.6667 28 10.6667ZM17.3333 0H12C11.2 0 10.6667 0.533333 10.6667 1.33333V28C10.6667 28.8 11.2 29.3333 12 29.3333H17.3333C18.1333 29.3333 18.6667 28.8 18.6667 28V1.33333C18.6667 0.533333 18.1333 0 17.3333 0Z" fill="#1E1E1E"/>
</svg>
