<svg width="26" height="29" viewBox="0 0 26 29" fill="none" xmlns="http://www.w3.org/2000/svg">
<path d="M25 8.02172V20.4137C25.0001 20.5566 24.9619 20.6968 24.8894 20.8199C24.817 20.943 24.7129 21.0444 24.588 21.1137L13.388 27.3351C13.2693 27.4009 13.1358 27.4354 13 27.4354C12.8642 27.4354 12.7307 27.4009 12.612 27.3351L1.412 21.1137C1.28709 21.0444 1.183 20.943 1.11055 20.8199C1.0381 20.6968 0.999931 20.5566 1 20.4137V8.02172C1.00017 7.87911 1.03845 7.73914 1.11089 7.6163C1.18333 7.49346 1.28729 7.39222 1.412 7.32306L12.612 1.10039C12.7307 1.03455 12.8642 1 13 1C13.1358 1 13.2693 1.03455 13.388 1.10039L24.588 7.32306C24.7127 7.39222 24.8167 7.49346 24.8891 7.6163C24.9615 7.73914 24.9998 7.87911 25 8.02172V8.02172Z" stroke="#1E1E1E" stroke-width="1.5" stroke-linecap="round" stroke-linejoin="round"/>
<path d="M1.70312 7.94321L12.6098 14.0019C12.7287 14.068 12.8624 14.1026 12.9985 14.1026C13.1345 14.1026 13.2682 14.068 13.3871 14.0019L24.3325 7.92188M12.9991 26.2179V14.2179" stroke="#1E1E1E" stroke-width="1.5" stroke-linecap="round" stroke-linejoin="round"/>
</svg>
