<svg width="14" height="13" viewBox="0 0 14 13" fill="none" xmlns="http://www.w3.org/2000/svg">
<path d="M7.06536 10.3667L6.9987 10.4333L6.92536 10.3667C3.7587 7.49333 1.66536 5.59333 1.66536 3.66667C1.66536 2.33333 2.66536 1.33333 3.9987 1.33333C5.02536 1.33333 6.02536 2 6.3787 2.90667H7.6187C7.97203 2 8.97203 1.33333 9.9987 1.33333C11.332 1.33333 12.332 2.33333 12.332 3.66667C12.332 5.59333 10.2387 7.49333 7.06536 10.3667ZM9.9987 0C8.8387 0 7.72536 0.54 6.9987 1.38667C6.27203 0.54 5.1587 0 3.9987 0C1.94536 0 0.332031 1.60667 0.332031 3.66667C0.332031 6.18 2.5987 8.24 6.03203 11.3533L6.9987 12.2333L7.96536 11.3533C11.3987 8.24 13.6654 6.18 13.6654 3.66667C13.6654 1.60667 12.052 0 9.9987 0Z" fill="black"/>
</svg>
