<svg width="14" height="15" viewBox="0 0 14 15" fill="none" xmlns="http://www.w3.org/2000/svg">
<path fill-rule="evenodd" clip-rule="evenodd" d="M7 0C7.24162 0 7.4375 0.204301 7.4375 0.45632V1.1408C7.4375 1.39282 7.24162 1.59712 7 1.59712C6.75838 1.59712 6.5625 1.39282 6.5625 1.1408V0.45632C6.5625 0.204301 6.75838 0 7 0ZM11.575 1.84485C11.7458 2.02306 11.7458 2.31198 11.575 2.49019L11.2469 2.83243C11.076 3.01063 10.799 3.01063 10.6281 2.83243C10.4573 2.65422 10.4573 2.3653 10.6281 2.18709L10.9563 1.84485C11.1271 1.66665 11.4041 1.66665 11.575 1.84485ZM2.0503 2.13849C2.22115 1.96029 2.49816 1.96029 2.66902 2.13849L3.13298 2.62242C3.30384 2.80062 3.30384 3.08955 3.13298 3.26775C2.96213 3.44596 2.68512 3.44596 2.51427 3.26775L2.0503 2.78383C1.87944 2.60562 1.87944 2.3167 2.0503 2.13849ZM7 4.33504C6.24579 4.33504 5.52247 4.64753 4.98916 5.20378C4.45586 5.76003 4.15625 6.51446 4.15625 7.30112V10.9517H6.5625V7.30112C6.5625 7.0491 6.75838 6.8448 7 6.8448C7.24162 6.8448 7.4375 7.0491 7.4375 7.30112V10.9517H9.84375V7.30112C9.84375 6.51446 9.54414 5.76003 9.01083 5.20378C8.47753 4.64753 7.75421 4.33504 7 4.33504ZM3.71875 11.8643C3.48669 11.8643 3.26413 11.9605 3.10003 12.1316C2.93594 12.3028 2.84375 12.5349 2.84375 12.777V13.6896H11.1562V12.777C11.1562 12.5349 11.0641 12.3028 10.9 12.1316C10.7359 11.9605 10.5133 11.8643 10.2812 11.8643H3.71875ZM10.7188 11.0096V7.30112C10.7188 6.27242 10.327 5.28585 9.62955 4.55845C8.93215 3.83105 7.98627 3.4224 7 3.4224C6.01373 3.4224 5.06785 3.83105 4.37045 4.55845C3.67305 5.28585 3.28125 6.27242 3.28125 7.30112V11.0096C2.98111 11.0905 2.70424 11.2538 2.48131 11.4863C2.15312 11.8286 1.96875 12.2929 1.96875 12.777V14.1459C1.96875 14.3979 2.16463 14.6022 2.40625 14.6022H11.5938C11.8354 14.6022 12.0312 14.3979 12.0312 14.1459V12.777C12.0312 12.2929 11.8469 11.8286 11.5187 11.4863C11.2958 11.2538 11.0189 11.0905 10.7188 11.0096ZM0 7.30112C0 7.0491 0.195875 6.8448 0.4375 6.8448H1.09375C1.33537 6.8448 1.53125 7.0491 1.53125 7.30112C1.53125 7.55313 1.33537 7.75744 1.09375 7.75744H0.4375C0.195875 7.75744 0 7.55313 0 7.30112ZM12.4688 7.30112C12.4688 7.0491 12.6646 6.8448 12.9062 6.8448H13.5625C13.8041 6.8448 14 7.0491 14 7.30112C14 7.55313 13.8041 7.75744 13.5625 7.75744H12.9062C12.6646 7.75744 12.4688 7.55313 12.4688 7.30112Z" fill="#1E1E1E"/>
</svg>
