<svg width="19" height="21" viewBox="0 0 19 21" fill="none" xmlns="http://www.w3.org/2000/svg">
<path d="M18.25 3.5H13.875V1.75C13.875 1.28587 13.6906 0.840752 13.3624 0.512563C13.0342 0.184375 12.5891 0 12.125 0L6.875 0C6.41087 0 5.96575 0.184375 5.63756 0.512563C5.30937 0.840752 5.125 1.28587 5.125 1.75V3.5H0.75V5.25H2.5V18.375C2.5 19.0712 2.77656 19.7389 3.26884 20.2312C3.76113 20.7234 4.42881 21 5.125 21H13.875C14.5712 21 15.2389 20.7234 15.7312 20.2312C16.2234 19.7389 16.5 19.0712 16.5 18.375V5.25H18.25V3.5ZM6.875 1.75H12.125V3.5H6.875V1.75ZM14.75 18.375C14.75 18.6071 14.6578 18.8296 14.4937 18.9937C14.3296 19.1578 14.1071 19.25 13.875 19.25H5.125C4.89294 19.25 4.67038 19.1578 4.50628 18.9937C4.34219 18.8296 4.25 18.6071 4.25 18.375V5.25H14.75V18.375Z" fill="#374957"/>
<path d="M8.625 8.75H6.875V15.75H8.625V8.75Z" fill="#374957"/>
<path d="M12.125 8.75H10.375V15.75H12.125V8.75Z" fill="#374957"/>
</svg>
